<svg xmlns="http://www.w3.org/2000/svg" width="24" height="24" viewBox="0 0 24 24">
    <g fill="none" fill-rule="evenodd">
        <g>
            <g>
                <g>
                    <g>
                        <g>
                            <path d="M0 0H24V24H0z" transform="translate(-16 -548) translate(0 244) translate(0 288) translate(16 16)"/>
                            <path stroke="#222" stroke-width="1.5" d="M5.132 4.814c.304-.101.646-.087.955.068h0L9.823 6.75h4.354l3.736-1.868c.694-.172 1.026-.085 1.286.1.26.187.45.472.506.812h0l.574 3.441c.98 1.938 1.54 3.629 1.661 5.077.108 1.29-.142 2.374-.79 3.238-1.408 1.877-4.514 2.7-9.15 2.7s-7.742-.823-9.15-2.7c-.648-.864-.898-1.948-.79-3.238.12-1.448.682-3.139 1.661-5.077h0l.574-3.44c.02-.124.059-.243.115-.354.154-.309.419-.526.722-.627z" transform="translate(-16 -548) translate(0 244) translate(0 288) translate(16 16)"/>
                        </g>
                        <path stroke="#222" stroke-linecap="round" stroke-linejoin="round" stroke-width="1.5" d="M13.5 13v.5c0 .828-.672 1.5-1.5 1.5s-1.5-.672-1.5-1.5V13h0M7 11l3-1m4 0l3 1" transform="translate(-16 -548) translate(0 244) translate(0 288) translate(16 16)"/>
                    </g>
                </g>
            </g>
        </g>
    </g>
</svg>
