<svg xmlns="http://www.w3.org/2000/svg" width="24" height="24" viewBox="0 0 24 24">
    <g fill="none" fill-rule="evenodd">
        <path d="M0 0H24V24H0z"/>
        <path fill="#BBB" d="M7 2v6.5c0 .46.373.833.833.833.263 0 .51-.123.667-.333l.7-.933c.331-.442.958-.532 1.4-.2.076.057.143.124.2.2l.7.933c.276.368.798.443 1.167.167.21-.158.333-.405.333-.667V2H7z"/>
        <path fill="#222" d="M16.789 1.25c2.485 0 4.55 1.916 4.736 4.395l.9 12c.197 2.616-1.765 4.895-4.381 5.092-.118.009-.237.013-.355.013H6.205c-2.623 0-4.75-2.127-4.75-4.75l.006-.237.6-12C2.187 3.235 4.274 1.25 6.805 1.25zm0 1.5H6.805c-1.732 0-3.16 1.358-3.246 3.088l-.6 12-.004.162c0 1.795 1.455 3.25 3.25 3.25h11.484c.08 0 .162-.003.243-.01 1.79-.133 3.132-1.693 2.998-3.483l-.9-12c-.128-1.696-1.54-3.007-3.241-3.007zM17 17.25c.414 0 .75.336.75.75 0 .38-.282.693-.648.743L17 18.75H7c-.414 0-.75-.336-.75-.75 0-.38.282-.693.648-.743L7 17.25h10z"/>
    </g>
</svg>
