<svg xmlns="http://www.w3.org/2000/svg" width="24" height="24" viewBox="0 0 24 24">
    <g fill="none" fill-rule="evenodd">
        <path d="M0 0H24V24H0z"/>
        <path fill="#12E079" d="M8.705 4h8.234c2.093 0 3.832 1.614 3.989 3.7l.75 10c.165 2.204-1.487 4.124-3.69 4.289-.1.007-.2.011-.3.011H8.206c-2.21 0-4-1.79-4-4 0-.067.002-.133.005-.2l.5-10C4.816 5.671 6.574 4 8.705 4z"/>
        <path fill="#222" d="M16.789 1.25c2.485 0 4.55 1.916 4.736 4.395l.9 12c.197 2.616-1.765 4.895-4.381 5.092-.118.009-.237.013-.355.013H6.205c-2.623 0-4.75-2.127-4.75-4.75l.006-.237.6-12C2.187 3.235 4.274 1.25 6.805 1.25zM7 2.75h-.195c-1.732 0-3.16 1.358-3.246 3.088l-.6 12-.004.162c0 1.795 1.455 3.25 3.25 3.25h11.484c.08 0 .162-.003.243-.01 1.79-.133 3.132-1.693 2.998-3.483l-.9-12c-.128-1.696-1.54-3.007-3.241-3.007H13V8.5c0 .225-.09.438-.249.594l-.084.073c-.369.276-.89.201-1.167-.167l-.7-.933c-.057-.076-.124-.143-.2-.2-.442-.332-1.069-.242-1.4.2L8.5 9c-.157.21-.404.333-.667.333C7.373 9.333 7 8.96 7 8.5V2.75zm10 14.5c.414 0 .75.336.75.75 0 .38-.282.693-.648.743L17 18.75H7c-.414 0-.75-.336-.75-.75 0-.38.282-.693.648-.743L7 17.25h10z"/>
    </g>
</svg>
