<svg xmlns="http://www.w3.org/2000/svg" width="16" height="16" viewBox="0 0 16 16">
    <g fill="none" fill-rule="evenodd">
        <path d="M0 0H16V16H0z"/>
        <path fill="#FFF" d="M8.75 13v2h-1.5v-2h1.5zm3.28-2.03l1.5 1.5-1.06 1.06-1.5-1.5 1.06-1.06zm-8.06 0l1.06 1.06-1.5 1.5-1.06-1.06 1.5-1.5zM8 4c2.21 0 4 1.79 4 4s-1.79 4-4 4-4-1.79-4-4 1.79-4 4-4zm0 1.5C6.62 5.5 5.5 6.62 5.5 8s1.12 2.5 2.5 2.5 2.5-1.12 2.5-2.5S9.38 5.5 8 5.5zM3 7.25v1.5H1v-1.5h2zm12 0v1.5h-2v-1.5h2zm-2.53-4.78l1.06 1.06-1.5 1.5-1.06-1.06 1.5-1.5zm-8.94 0l1.5 1.5-1.06 1.06-1.5-1.5 1.06-1.06zM8.75 1v2h-1.5V1h1.5z"/>
    </g>
</svg>
