<svg xmlns="http://www.w3.org/2000/svg" xmlns:xlink="http://www.w3.org/1999/xlink" width="88" height="88" viewBox="0 0 88 88">
    <defs>
        <linearGradient id="8osiqlra3c" x1="16.453%" x2="83.514%" y1="22.754%" y2="75.864%">
            <stop offset="0%" stop-color="#FFE043"/>
            <stop offset="100%" stop-color="#FFA637"/>
        </linearGradient>
        <linearGradient id="sswgxsvmoe" x1="50%" x2="50%" y1="0%" y2="100%">
            <stop offset="0%" stop-color="#B17944"/>
            <stop offset="100%" stop-color="#704319"/>
        </linearGradient>
        <filter id="n4qwdxns5a" width="145.2%" height="159.6%" x="-22.6%" y="-14.9%" filterUnits="objectBoundingBox">
            <feMorphology in="SourceAlpha" radius="3" result="shadowSpreadOuter1"/>
            <feOffset dy="8" in="shadowSpreadOuter1" result="shadowOffsetOuter1"/>
            <feGaussianBlur in="shadowOffsetOuter1" result="shadowBlurOuter1" stdDeviation="6"/>
            <feColorMatrix in="shadowBlurOuter1" values="0 0 0 0 1 0 0 0 0 0.466666667 0 0 0 0 0.2 0 0 0 0.198672421 0"/>
        </filter>
        <filter id="noicgf4ald" width="121.7%" height="130.9%" x="-10.9%" y="-.5%" filterUnits="objectBoundingBox">
            <feOffset dx=".5" dy=".5" in="SourceAlpha" result="shadowOffsetInner1"/>
            <feComposite in="shadowOffsetInner1" in2="SourceAlpha" k2="-1" k3="1" operator="arithmetic" result="shadowInnerInner1"/>
            <feColorMatrix in="shadowInnerInner1" values="0 0 0 0 1 0 0 0 0 0.904611081 0 0 0 0 0.576295732 0 0 0 1 0"/>
        </filter>
        <path id="0cld589e7b" d="M33.78 27c-5-3.5-8.166-4.833-10.5-4.5-1.666 1.667-2.666 6-3 13-11.666 21.667-4 32.5 23 32.5s35.334-10.333 25-31c-1.666-8.333-3.666-13.667-6-16-3.333.667-6.666 2.333-11 6m0 0c-7-2-11.5-2.333-17.5 0"/>
    </defs>
    <g fill="none" fill-rule="evenodd">
        <g>
            <g>
                <g>
                    <g>
                        <path d="M0 0H88V88H0z" transform="translate(-608 -322) translate(40 174) translate(560 28) translate(8 120)"/>
                        <g transform="translate(-608 -322) translate(40 174) translate(560 28) translate(8 120)">
                            <use fill="#000" filter="url(#n4qwdxns5a)" xlink:href="#0cld589e7b"/>
                            <use fill="url(#8osiqlra3c)" xlink:href="#0cld589e7b"/>
                            <use fill="#000" filter="url(#noicgf4ald)" xlink:href="#0cld589e7b"/>
                        </g>
                        <path fill="#FFF" d="M55.28 33.5c4.97 0 9 6.044 9 13.5 0 1.592-.183 3.12-.52 4.537 1.982.294 3.52 2.404 3.52 4.963 0 2.761-1.79 5-4 5-1.56 0-2.912-1.117-3.571-2.746-1.307 1.111-2.818 1.746-4.429 1.746-4.97 0-9-6.044-9-13.5s4.03-13.5 9-13.5zm-24.5 1c4.695 0 8.5 5.82 8.5 13s-3.805 13-8.5 13c-1.721 0-3.323-.783-4.662-2.128-.335 1.052-1.053 1.838-2.006 2.04-1.62.345-3.307-1.127-3.766-3.288-.46-2.161.482-4.192 2.103-4.537.164-.035.329-.05.493-.05-.426-1.549-.662-3.25-.662-5.037 0-7.18 3.806-13 8.5-13z" opacity=".8" transform="translate(-608 -322) translate(40 174) translate(560 28) translate(8 120)"/>
                        <path fill="url(#sswgxsvmoe)" d="M54.28 39.5c3.314 0 6 4.03 6 9s-2.686 9-6 9-6-4.03-6-9 2.686-9 6-9zm-22.5 0c3.038 0 5.5 3.806 5.5 8.5s-2.462 8.5-5.5 8.5c-3.037 0-5.5-3.806-5.5-8.5s2.463-8.5 5.5-8.5z" transform="translate(-608 -322) translate(40 174) translate(560 28) translate(8 120)"/>
                    </g>
                </g>
            </g>
        </g>
    </g>
</svg>
