<svg xmlns="http://www.w3.org/2000/svg" width="24" height="24" viewBox="0 0 24 24">
    <g fill="none" fill-rule="evenodd">
        <path d="M0 0H24V24H0z"/>
        <path fill="#222" d="M4.75 13v2c0 1.733 1.356 3.15 3.066 3.245L8 18.25h8c1.733 0 3.15-1.356 3.245-3.066L19.25 15v-2h1.5v2c0 2.55-2.01 4.631-4.533 4.745L16 19.75H8c-2.55 0-4.631-2.01-4.745-4.533L3.25 15v-2h1.5zm8-8v8.189l2.72-2.72 1.06 1.061-4 4c-.266.267-.683.29-.976.073l-.084-.073-4-4 1.06-1.06 2.72 2.719V5h1.5z"/>
    </g>
</svg>
