<svg xmlns="http://www.w3.org/2000/svg" width="16" height="16" viewBox="0 0 16 16">
    <g fill="none" fill-rule="evenodd">
        <path d="M0 0H16V16H0z"/>
        <path fill="#BBB" d="M12 2.25c1.519 0 2.75 1.231 2.75 2.75v5c0 1.519-1.231 2.75-2.75 2.75h-1.172c-.331 0-.649.132-.883.366L8.53 14.53c-.293.293-.767.293-1.06 0l-1.415-1.414c-.234-.234-.552-.366-.883-.366H4c-1.519 0-2.75-1.231-2.75-2.75V5c0-1.519 1.231-2.75 2.75-2.75zm0 1.5H4c-.69 0-1.25.56-1.25 1.25v5c0 .69.56 1.25 1.25 1.25h1.172c.729 0 1.428.29 1.944.805L8 12.94l.884-.884c.469-.468 1.09-.75 1.746-.798l.198-.007H12c.69 0 1.25-.56 1.25-1.25V5c0-.69-.56-1.25-1.25-1.25zm-3 4.5v1.5H5v-1.5h4zm2-3v1.5H5v-1.5h6z"/>
    </g>
</svg>
