<svg xmlns="http://www.w3.org/2000/svg" width="24" height="24" viewBox="0 0 24 24">
    <g fill="none" fill-rule="evenodd">
        <g fill="#FFF">
            <g>
                <g>
                    <g>
                        <path d="M19.289.043c.529-.16 1.086.14 1.245.67L22 5.593c4.167 9.333.74 14-10.28 14-11.019 0-14.268-4.681-9.747-14.043l.997-4.337c.015-.066.037-.13.065-.191.229-.503.822-.724 1.324-.495l3.547 1.619 7.418-.213 3.82-1.834c.046-.023.095-.042.145-.056zM12 11.593c-2.21 0-4 1.583-4 3.535 0 1.953 8 1.953 8 0 0-1.952-1.79-3.535-4-3.535zm-1.064-4.944c-.194-.517-.77-.78-1.287-.585l-4 1.5-.107.047c-.445.229-.658.76-.478 1.24.194.517.77.78 1.287.585l4-1.5.107-.047c.445-.229.658-.76.478-1.24zm3.191-.641c-.45-.058-.897.198-1.063.64-.194.518.068 1.094.585 1.288l4 1.5.111.035c.486.12.996-.14 1.176-.62.194-.517-.068-1.093-.585-1.287l-4-1.5-.111-.035z" transform="translate(-176 -382) translate(100 366) translate(76 16) translate(0 2)"/>
                    </g>
                </g>
            </g>
        </g>
    </g>
</svg>
