<svg xmlns="http://www.w3.org/2000/svg" width="24" height="24" viewBox="0 0 24 24">
    <g fill="none" fill-rule="evenodd">
        <g>
            <g>
                <g>
                    <g>
                        <path d="M0 0H24V24H0z" transform="translate(-16 -436) translate(0 244) translate(0 176) translate(16 16)"/>
                        <path stroke="#222" stroke-width="1.5" d="M12 2.75c2.554 0 4.867 1.035 6.54 2.71 1.675 1.673 2.71 3.986 2.71 6.54s-1.035 4.867-2.71 6.54c-1.673 1.675-3.986 2.71-6.54 2.71-1.506 0-2.928-.36-4.185-.998h0L4 20.25l-.25-4.063c-.64-1.257-1-2.68-1-4.187 0-2.554 1.035-4.867 2.71-6.54C7.132 3.784 9.445 2.75 12 2.75z" transform="translate(-16 -436) translate(0 244) translate(0 176) translate(16 16)"/>
                        <path stroke="#222" stroke-linecap="square" stroke-linejoin="round" stroke-width="1.5" d="M9.172 11.828c1.562 1.563 4.094 1.563 5.656 0" transform="translate(-16 -436) translate(0 244) translate(0 176) translate(16 16)"/>
                    </g>
                </g>
            </g>
        </g>
    </g>
</svg>
