<svg xmlns="http://www.w3.org/2000/svg" width="24" height="24" viewBox="0 0 24 24">
    <g fill="none" fill-rule="evenodd">
        <path d="M0 0H24V24H0z"/>
        <path fill="#BBB" d="M13 15c1.657 0 3 1.343 3 3v4h-6v-4c0-1.657 1.343-3 3-3z"/>
        <path fill="#222" d="M9.955 3.287c1.805-1.313 4.281-1.192 5.95.291l5.25 4.668c1.015.901 1.595 2.193 1.595 3.55V18c0 2.623-2.127 4.75-4.75 4.75H6c-2.623 0-4.75-2.127-4.75-4.75v-5.963c0-1.52.727-2.948 1.956-3.842zM14.908 4.7c-1.141-1.015-2.835-1.098-4.07-.2L4.087 9.41c-.84.611-1.338 1.588-1.338 2.628V18c0 1.795 1.455 3.25 3.25 3.25h12c1.795 0 3.25-1.455 3.25-3.25v-6.204c0-.928-.397-1.812-1.09-2.429zm-4.284 3.884c.209.313.15.727-.12.972l-.088.068-3 2c-.345.23-.81.137-1.04-.208-.209-.313-.15-.727.12-.972l.088-.068 3-2c.345-.23.81-.137 1.04.208z"/>
    </g>
</svg>
