<svg xmlns="http://www.w3.org/2000/svg" width="16" height="16" viewBox="0 0 16 16">
    <g fill="none" fill-rule="evenodd">
        <path d="M0 0H16V16H0z"/>
        <path fill="#999" d="M5.716 3.19l-.91 2.274c-.19.475-.649.786-1.16.786H3.5c-1.243 0-2.25 1.007-2.25 2.25v3.69c0 1.413 1.07 2.596 2.476 2.736l4.76.476c2.345.235 4.508-1.287 5.08-3.574l.54-2.161c.369-1.473-.527-2.967-2-3.335l-.22-.045c-.148-.025-.298-.037-.448-.037H9.96l.384-1.534c.312-1.246-.389-2.521-1.607-2.928-1.219-.406-2.543.208-3.02 1.402zm2.547.022c.474.158.747.655.626 1.14l-.617 2.466c-.118.473.24.932.728.932h2.438c.103 0 .204.013.304.037.67.168 1.077.846.91 1.516l-.541 2.161c-.391 1.565-1.871 2.606-3.476 2.446l-4.76-.476c-.638-.064-1.125-.602-1.125-1.244V8.5c0-.414.336-.75.75-.75h.146c1.124 0 2.136-.685 2.553-1.729l.91-2.274c.182-.456.688-.69 1.154-.535z"/>
    </g>
</svg>
