<svg xmlns="http://www.w3.org/2000/svg" width="24" height="24" viewBox="0 0 24 24">
    <g fill="none" fill-rule="evenodd">
        <path d="M0 0H24V24H0z"/>
        <path fill="#FFF" d="M10.08 4.858c.585-1.453 2.208-2.2 3.703-1.706 1.495.495 2.355 2.05 1.972 3.57l-.63 2.503h2.458c.186 0 .372.015.555.045l.273.056c1.83.455 2.944 2.297 2.486 4.115l-.738 2.933c-.74 2.94-3.541 4.897-6.578 4.595l-6.504-.645C5.33 20.15 4 18.69 4 16.947V11.94c0-1.499 1.224-2.714 2.733-2.714h.2c.838 0 1.592-.507 1.903-1.28zm-.201 8.435c-.39-.39-1.024-.39-1.415 0-.39.39-.39 1.024 0 1.414 1.953 1.953 5.119 1.953 7.072 0 .39-.39.39-1.024 0-1.414-.391-.39-1.024-.39-1.415 0l-.128.12c-1.178 1.05-2.985 1.01-4.114-.12z"/>
    </g>
</svg>
