<svg xmlns="http://www.w3.org/2000/svg" width="16" height="16" viewBox="0 0 16 16">
    <g fill="none" fill-rule="evenodd">
        <path d="M0 0H16V16H0z"/>
        <path fill="#12E079" d="M5.949 3.282l-.91 2.275c-.228.57-.78.943-1.393.943H3.5c-1.105 0-2 .895-2 2v3.69c0 1.284.973 2.36 2.251 2.488l4.76.476c2.222.222 4.27-1.22 4.813-3.387l.54-2.16c.335-1.34-.48-2.697-1.82-3.032l-.2-.042c-.133-.022-.27-.033-.406-.033H9.64l.462-1.845c.28-1.119-.35-2.265-1.444-2.63-1.093-.364-2.281.187-2.71 1.257z"/>
    </g>
</svg>
