<svg xmlns="http://www.w3.org/2000/svg" width="24" height="24" viewBox="0 0 24 24">
    <g fill="none" fill-rule="evenodd">
        <g fill="#FFF">
            <g>
                <g>
                    <path d="M12 0c6.627 0 12 5.373 12 12s-5.373 12-12 12S0 18.627 0 12 5.373 0 12 0zm-1.48 5.035c-1.546-.32-3.09.618-3.504 2.162l-.624 2.332-.056.237c-.195.954-.034 1.95.455 2.798l3.172 5.493.096.156c.868 1.314 2.62 1.74 4.002.942l3.464-2 .155-.096c1.314-.868 1.74-2.62.943-4.002l-3.172-5.493-.118-.193c-.538-.82-1.359-1.416-2.31-1.67l-2.332-.626zm-.68 3.129c.718-.414 1.636-.169 2.05.549.414.717.168 1.635-.55 2.049-.717.414-1.634.168-2.048-.55-.415-.717-.169-1.634.549-2.048z" transform="translate(-176 -382) translate(136 366) translate(40 16)"/>
                </g>
            </g>
        </g>
    </g>
</svg>
