<svg xmlns="http://www.w3.org/2000/svg" width="24" height="24" viewBox="0 0 24 24">
    <g fill="none" fill-rule="evenodd">
        <path d="M0 0H24V24H0z"/>
        <path fill="#12E079" d="M13 22c5.965 0 9-3.035 9-9s-3.035-9-9-9-9 3.035-9 9 3.035 9 9 9z"/>
        <path fill="#222" d="M12 1.25c7.042 0 10.75 3.708 10.75 10.75S19.042 22.75 12 22.75 1.25 19.042 1.25 12 4.958 1.25 12 1.25zm0 1.5c-6.213 0-9.25 3.037-9.25 9.25s3.037 9.25 9.25 9.25 9.25-3.037 9.25-9.25S18.213 2.75 12 2.75zm-5 9.714c0-1.952 8-1.952 8 0C15 14.417 13.21 16 11 16s-4-1.583-4-3.536zM8 6.25c.38 0 .693.282.743.648L8.75 7v2c0 .414-.336.75-.75.75-.38 0-.693-.282-.743-.648L7.25 9V7c0-.414.336-.75.75-.75zm6 0c.38 0 .693.282.743.648L14.75 7v2c0 .414-.336.75-.75.75-.38 0-.693-.282-.743-.648L13.25 9V7c0-.414.336-.75.75-.75z"/>
    </g>
</svg>
