<svg xmlns="http://www.w3.org/2000/svg" width="16" height="16" viewBox="0 0 16 16">
    <g fill="none" fill-rule="evenodd">
        <path d="M0 0H16V16H0z"/>
        <path fill="#BBB" d="M13 1c1.105 0 2 .895 2 2v10c0 1.105-.895 2-2 2H3c-1.105 0-2-.895-2-2V3c0-1.105.895-2 2-2h10zm0 1.5H3c-.245 0-.45.177-.492.41L2.5 3v10c0 .245.177.45.41.492L3 13.5h10c.245 0 .45-.177.492-.41L13.5 13V3c0-.245-.177-.45-.41-.492L13 2.5zM8 4.44L9.06 5.5 7.342 7.22h4.19v1.5H7.34l1.72 1.72L8 11.5l-3-3c-.237-.237-.282-.592-.136-.874l.063-.103L5 7.44l3-3z"/>
    </g>
</svg>
