<?xml version="1.0" encoding="UTF-8"?>
<svg width="16px" height="16px" viewBox="0 0 16 16" version="1.1" xmlns="http://www.w3.org/2000/svg" xmlns:xlink="http://www.w3.org/1999/xlink">
    <title>A1190FEA-6305-430D-B0B1-BFCE5331B54A</title>
    <g id="追漫-light102" stroke="none" stroke-width="1" fill="none" fill-rule="evenodd">
        <g id="排行榜" transform="translate(-307.000000, -440.000000)">
            <g id="漫画列表/g" transform="translate(116.000000, 426.000000)">
                <g id="标签/排名上升">
                    <g transform="translate(171.000000, 12.000000)">
                        <g id="icon/16/rankingup_ba">
                            <g transform="translate(20.000000, 2.000000)">
                                <g>
                                    <rect id="矩形" x="0" y="0" width="16" height="16"></rect>
                                    <path d="M9.5557944,2.49626991 L9.62403772,2.58397485 L11.6240377,5.58397485 L10.3759623,6.41602515 L9.43303703,5.00116545 L9.36406874,5.3289539 C9.00106695,7.00434681 8.48138743,8.68073234 7.77421891,10.252218 C7.50095943,10.8594612 7.20398953,11.4400387 6.88210369,11.9904252 L6.63599873,12.3974992 L5.36400127,11.6025008 C5.74458843,10.9935613 6.091661,10.3359502 6.40633665,9.63667094 C7.06635562,8.16996211 7.55579069,6.5911393 7.89808403,5.01132388 L7.98873411,4.57515335 L6.41602515,5.62403772 L5.58397485,4.37596228 L8.58397485,2.37596228 C8.86595837,2.18797327 9.22894556,2.21613694 9.47746301,2.42135861 L9.5557944,2.49626991 Z" id="形状" fill="#BBBBBB" fill-rule="nonzero"></path>
                                </g>
                            </g>
                        </g>
                    </g>
                </g>
            </g>
        </g>
    </g>
</svg>