<svg xmlns="http://www.w3.org/2000/svg" width="16" height="16" viewBox="0 0 16 16">
    <g fill="none" fill-rule="evenodd">
        <path d="M0 0H16V16H0z"/>
        <path fill="#BBB" d="M8 4c2.21 0 4 1.79 4 4s-1.79 4-4 4-4-1.79-4-4 1.79-4 4-4zm0 2c-1.105 0-2 .895-2 2s.895 2 2 2 2-.895 2-2-.895-2-2-2z"/>
        <path fill="#222" d="M7.47.399c.293-.293.767-.293 1.06 0l1.851 1.85L13 2.25c.38 0 .694.282.743.648L13.75 3l-.001 2.617 1.852 1.853c.267.266.29.683.073.976l-.073.084-1.852 1.852L13.75 13c0 .38-.282.693-.648.743L13 13.75l-2.618-.001-1.852 1.852c-.266.267-.683.29-.976.073l-.084-.073-1.853-1.852L3 13.75c-.38 0-.693-.282-.743-.648L2.25 13l-.001-2.619-1.85-1.85c-.267-.267-.29-.684-.073-.977l.073-.084 1.85-1.852L2.25 3c0-.38.282-.693.648-.743L3 2.25l2.618-.001zM8 1.99L6.46 3.53c-.141.14-.332.22-.531.22l-2.18-.001v2.18c0 .16-.05.313-.142.44l-.077.09L1.99 8l1.54 1.54c.113.113.186.258.21.413l.01.118-.001 2.179h2.18c.16 0 .313.05.44.143l.09.077L8 14.01l1.54-1.54c.113-.113.258-.186.413-.21l.118-.01h2.179v-2.18c0-.158.05-.312.143-.44l.077-.09L14.01 8l-1.54-1.54c-.113-.113-.186-.258-.21-.413l-.01-.118v-2.18h-2.18c-.158 0-.312-.05-.44-.142l-.09-.077L8 1.99zm0 3.26c1.519 0 2.75 1.231 2.75 2.75S9.519 10.75 8 10.75 5.25 9.519 5.25 8 6.481 5.25 8 5.25zm0 1.5c-.69 0-1.25.56-1.25 1.25S7.31 9.25 8 9.25 9.25 8.69 9.25 8 8.69 6.75 8 6.75z"/>
    </g>
</svg>
