<svg xmlns="http://www.w3.org/2000/svg" width="24" height="24" viewBox="0 0 24 24">
    <g fill="none" fill-rule="evenodd">
        <path d="M0 0H24V24H0z"/>
        <path fill="#FFF" d="M10 3.25v1.5H8c-1.733 0-3.15 1.356-3.245 3.066L4.75 8v8c0 1.733 1.356 3.15 3.066 3.245L8 19.25h8c1.733 0 3.15-1.356 3.245-3.066L19.25 16v-2h1.5v2c0 2.55-2.01 4.631-4.533 4.745L16 20.75H8c-2.55 0-4.631-2.01-4.745-4.533L3.25 16V8c0-2.55 2.01-4.631 4.533-4.745L8 3.25h2zm10 0c.38 0 .693.282.743.648L20.75 4v6h-1.5V5.81l-6.72 6.72-1.06-1.06 6.718-6.72H14v-1.5h6z"/>
    </g>
</svg>
