<svg xmlns="http://www.w3.org/2000/svg" width="24" height="24" viewBox="0 0 24 24">
    <g fill="none" fill-rule="evenodd">
        <g fill="#FFF">
            <g>
                <g>
                    <g>
                        <path d="M19.289.45c.529-.159 1.086.141 1.245.67L22 6c4.167 9.333.74 14-10.28 14C.702 20-2.547 15.32 1.974 5.957L2.97 1.62c.015-.066.037-.13.065-.191.229-.502.822-.724 1.324-.495l3.547 1.62 7.418-.214 3.82-1.834c.046-.022.095-.041.145-.056zM8 10.757C8 13.101 9.79 15 12 15s4-1.9 4-4.243c0-2.343-8-2.343-8 0zm2.936-5.108c-.194-.517-.77-.78-1.287-.585l-4 1.5-.107.047c-.445.229-.658.76-.478 1.24.194.517.77.78 1.287.585l4-1.5.107-.047c.445-.229.658-.76.478-1.24zm3.191-.641c-.45-.058-.897.198-1.063.64-.194.518.068 1.094.585 1.288l4 1.5.111.035c.486.12.996-.14 1.176-.62.194-.517-.068-1.093-.585-1.287l-4-1.5-.111-.035z" transform="translate(-176 -382) translate(136 366) translate(40 16) translate(0 2)"/>
                    </g>
                </g>
            </g>
        </g>
    </g>
</svg>
