<svg xmlns="http://www.w3.org/2000/svg" width="16" height="16" viewBox="0 0 16 16">
    <g fill="none" fill-rule="evenodd">
        <path d="M0 0H16V16H0z"/>
        <path fill="#BBB" d="M13 1c1.105 0 2 .895 2 2v10c0 1.105-.895 2-2 2H3c-1.105 0-2-.895-2-2V3c0-1.105.895-2 2-2h10zm0 1.5H3c-.245 0-.45.177-.492.41L2.5 3v10c0 .245.177.45.41.492L3 13.5h10c.245 0 .45-.177.492-.41L13.5 13V3c0-.245-.177-.45-.41-.492L13 2.5zM8.344 4.333l.102.064.084.073 3 3-1.06 1.06-1.72-1.719V11h-1.5V6.811l-1.72 1.72L4.47 7.47l3-3c.236-.237.592-.282.874-.137z"/>
    </g>
</svg>
