<svg xmlns="http://www.w3.org/2000/svg" width="16" height="16" viewBox="0 0 16 16">
    <g fill="none" fill-rule="evenodd">
        <path d="M0 0H16V16H0z"/>
        <path fill="#BBB" d="M8 2c2.577 0 4.91 2 7 6-2.09 4-4.423 6-7 6s-4.91-2-7-6c2.09-4 4.423-6 7-6zm0 1.5c-1.724 0-3.454 1.344-5.147 4.244L2.706 8l.147.256c1.634 2.8 3.304 4.15 4.969 4.24L8 12.5c1.724 0 3.454-1.344 5.147-4.244l.146-.257-.146-.255c-1.634-2.8-3.304-4.15-4.969-4.24L8 3.5zm0 3c.828 0 1.5.672 1.5 1.5S8.828 9.5 8 9.5 6.5 8.828 6.5 8 7.172 6.5 8 6.5z"/>
    </g>
</svg>
