<svg xmlns="http://www.w3.org/2000/svg" width="24" height="24" viewBox="0 0 24 24">
    <g fill="none" fill-rule="evenodd">
        <g fill="#FFF">
            <g>
                <g>
                    <g>
                        <path d="M19.459.448c.529-.16 1.087.14 1.246.669L22.178 6c4.35 9.333.91 14-10.32 14s-14.484-4.667-9.76-14l.98-4.373c.015-.068.037-.133.066-.196.228-.502.821-.725 1.324-.496l3.56 1.618 7.447-.213L19.316.503c.046-.022.094-.04.143-.055zM12 13c-.828 0-1.5.672-1.5 1.5S11.172 16 12 16s1.5-.672 1.5-1.5S12.828 13 12 13zm0-8.5c-.828 0-1.5.672-1.5 1.5v4l.007.144c.073.761.713 1.356 1.493 1.356.828 0 1.5-.672 1.5-1.5V6l-.007-.144C13.42 5.095 12.78 4.5 12 4.5z" transform="translate(-176 -382) translate(140 366) translate(36 16) translate(0 2)"/>
                    </g>
                </g>
            </g>
        </g>
    </g>
</svg>
